<?xml version="1.0" encoding="UTF-8" standalone="no"?>
<!-- Created with Inkscape (http://www.inkscape.org/) -->

<svg
   version="1.1"
   id="svg2"
   xml:space="preserve"
   width="1440"
   height="1440"
   viewBox="0 0 1440 1440"
   sodipodi:docname="Admin.ai"
   xmlns:inkscape="http://www.inkscape.org/namespaces/inkscape"
   xmlns:sodipodi="http://sodipodi.sourceforge.net/DTD/sodipodi-0.dtd"
   xmlns="http://www.w3.org/2000/svg"
   xmlns:svg="http://www.w3.org/2000/svg"><defs
     id="defs6"><clipPath
       clipPathUnits="userSpaceOnUse"
       id="clipPath16"><path
         d="M 0,1080 H 1080 V 0 H 0 Z"
         id="path14" /></clipPath><clipPath
       clipPathUnits="userSpaceOnUse"
       id="clipPath24"><path
         d="M 40.0011,1040 H 1040 V 40.0029 H 40.0011 Z"
         id="path22" /></clipPath></defs><sodipodi:namedview
     id="namedview4"
     pagecolor="#ffffff"
     bordercolor="#666666"
     borderopacity="1.0"
     inkscape:pageshadow="2"
     inkscape:pageopacity="0.0"
     inkscape:pagecheckerboard="0" /><g
     id="g8"
     inkscape:groupmode="layer"
     inkscape:label="Admin"
     transform="matrix(1.3333333,0,0,-1.3333333,0,1440)"><g
       id="g10"><g
         id="g12"
         clip-path="url(#clipPath16)"><g
           id="g18"><g
             id="g20" /><g
             id="g44"><g
               clip-path="url(#clipPath24)"
               id="g42"><g
                 transform="translate(663.42,679.2)"
                 id="g28"><path
                   d="m 0,0 c 28.67,59.56 16.9,127.66 -30.19,174.51 -18.42,18.4 -36.45,29.59 -60.38,37.56 -15.57,5.12 -20.69,5.88 -43.29,6.26 -33.98,0.76 -48.6,-2.46 -75.95,-16.5 -35.5,-18.21 -63.79,-52.55 -76.32,-92.76 -3.8,-12.14 -4.37,-18.21 -4.37,-42.68 0,-24.47 0.57,-30.54 4.37,-42.68 16.9,-54.06 58.86,-93.33 113.92,-106.42 24.87,-6.07 57.53,-4.55 81.26,3.61 40.83,13.85 73.1,42.11 90.95,79.1 m 127.21,-438.18 v 54.06 c 0,52.16 -0.19,54.82 -5.12,73.98 -8.93,35.66 -20.32,60.89 -40.07,89.91 -40.25,58.8 -107.65,102.05 -176,112.86 -18.8,2.85 -54.12,3.99 -73.1,1.9 -99.88,-10.24 -189.49,-81.19 -222.91,-176.79 -11.01,-31.49 -13.67,-49.13 -14.81,-97.12 -0.95,-36.8 -0.57,-45.53 2.09,-55.96 7.78,-30.54 30.19,-52.54 60.19,-59.75 18.22,-4.17 392.27,-4.36 408.6,0 25.06,6.45 43.86,21.62 54.87,44.01 z M 278.16,18.21 c -0.19,9.48 -6.27,21.24 -14.24,27.5 -5.89,4.56 -9.3,5.5 -19.75,6.07 -7.02,0.19 -14.24,-0.57 -16.33,-1.7 C 225.76,48.94 203.35,27.31 178.1,2.27 l -45.95,-45.71 -19.56,19.16 C 97.97,-10.06 91.14,-4.55 85.44,-3.04 75.19,-0.19 71.58,-0.38 62.66,-4.55 43.29,-13.47 35.7,-32.82 44.62,-51.22 c 2.28,-4.74 16.71,-20.48 36.46,-40.21 26.2,-25.8 34.36,-32.82 40.44,-34.53 9.49,-2.65 11.39,-2.65 20.88,0 6.27,1.71 17.47,11.95 67.98,62.03 61.51,61.27 67.78,68.86 67.78,82.14 M 140.5,285.67 C 292.97,189.88 382.02,23.71 376.32,-154.6 373.85,-229.34 357.34,-295.35 324.68,-361.17 283.67,-443.12 227.27,-507.04 150,-558.26 126.07,-574.19 76.9,-598.85 49.37,-608.9 c -26.58,-9.87 -78.99,-22.77 -108.23,-26.75 -36.26,-5.12 -99.3,-4.55 -134.81,0.76 -30.57,4.74 -69.11,14.22 -97.78,24.09 -43.86,14.98 -105.19,49.32 -146.39,81.56 -19.18,15.18 -64.55,60.89 -79.93,80.81 -52.41,67.72 -87.91,150.24 -101.39,235.03 -4.18,26.74 -5.7,95.6 -2.66,124.62 9.49,93.14 45.57,182.67 104.05,258.55 16.33,21.06 65.5,70.19 84.87,84.79 52.97,39.65 97.4,63.17 155.31,81.95 37.03,11.95 86.39,21.62 121.9,23.52 70.82,3.79 141.07,-6.45 205.25,-29.97 25.82,-9.49 68.73,-30.54 90.94,-44.39"
                   style="fill:#2c5475;fill-opacity:1;fill-rule:nonzero;stroke:none"
                   id="path26" /></g><g
                 transform="translate(927.34,724.91)"
                 id="g32"><path
                   d="m 0,0 c 7.97,-6.26 14.05,-18.02 14.24,-27.5 0,-13.28 -6.27,-20.87 -67.78,-82.14 -50.51,-50.08 -61.71,-60.32 -67.98,-62.03 -9.49,-2.65 -11.39,-2.65 -20.88,0 -6.08,1.71 -14.24,8.73 -40.44,34.53 -19.75,19.73 -34.18,35.47 -36.46,40.21 -8.92,18.4 -1.33,37.75 18.04,46.67 8.92,4.17 12.53,4.36 22.78,1.51 5.7,-1.51 12.53,-7.02 27.15,-21.24 l 19.56,-19.16 45.95,45.71 c 25.25,25.04 47.66,46.67 49.74,47.81 2.09,1.13 9.31,1.89 16.33,1.7 C -9.3,5.5 -5.89,4.56 0,0"
                   style="fill:#ffffff;fill-opacity:1;fill-rule:nonzero;stroke:none"
                   id="path30" /></g><g
                 transform="translate(790.63,295.08)"
                 id="g36"><path
                   d="m 0,0 v -54.06 l -6.26,-12.9 c -11.01,-22.39 -29.81,-37.56 -54.87,-44.01 -16.33,-4.36 -390.38,-4.17 -408.6,0 -30,7.21 -52.41,29.21 -60.19,59.75 -2.66,10.43 -3.04,19.16 -2.09,55.96 1.14,47.99 3.8,65.63 14.81,97.12 33.42,95.6 123.03,166.55 222.91,176.79 18.98,2.09 54.3,0.95 73.1,-1.9 68.35,-10.81 135.75,-54.06 176,-112.86 19.75,-29.02 31.14,-54.25 40.07,-89.91 C -0.19,54.82 0,52.16 0,0"
                   style="fill:#ffffff;fill-opacity:1;fill-rule:nonzero;stroke:none"
                   id="path34" /></g><g
                 transform="translate(633.23,853.71)"
                 id="g40"><path
                   d="m 0,0 c 47.09,-46.85 58.86,-114.95 30.19,-174.51 -17.85,-36.99 -50.12,-65.25 -90.95,-79.1 -23.73,-8.16 -56.39,-9.68 -81.26,-3.61 -55.06,13.09 -97.02,52.36 -113.92,106.42 -3.8,12.14 -4.37,18.21 -4.37,42.68 0,24.47 0.57,30.54 4.37,42.68 12.53,40.21 40.82,74.55 76.32,92.76 27.35,14.04 41.97,17.26 75.95,16.5 22.6,-0.38 27.72,-1.14 43.29,-6.26 C -36.45,29.59 -18.42,18.4 0,0"
                   style="fill:#ffffff;fill-opacity:1;fill-rule:nonzero;stroke:none"
                   id="path38" /></g></g></g></g><g
           id="g46"
           transform="translate(798.7,942.4)"><path
             d="m 0,0 c -1.4,-1.5 -0.6,-3.4 1.4,-3.4 1.4,0 1.9,0.5 1.7,1.7 C 2.8,0.1 1.1,1 0,0"
             style="fill:#2c5475;fill-opacity:1;fill-rule:evenodd;stroke:none"
             id="path48" /></g></g></g></g></svg>
