<?xml version="1.0" standalone="no"?>
<!DOCTYPE svg PUBLIC "-//W3C//DTD SVG 20010904//EN"
 "http://www.w3.org/TR/2001/REC-SVG-20010904/DTD/svg10.dtd">
<svg version="1.0" xmlns="http://www.w3.org/2000/svg"
 width="372.000000pt" height="375.000000pt" viewBox="0 0 372.000000 375.000000"
 preserveAspectRatio="xMidYMid meet">

<g transform="translate(0.000000,375.000000) scale(0.100000,-0.100000)"
fill="#000000" stroke="none">
<path d="M1667 3520 c-159 -25 -339 -81 -472 -148 -81 -40 -178 -101 -183
-113 -2 -5 -8 -9 -14 -9 -18 0 -153 -117 -231 -200 -178 -189 -306 -444 -354
-704 -23 -124 -23 -361 -1 -482 61 -321 227 -613 469 -820 185 -159 431 -283
664 -335 103 -22 283 -38 389 -33 394 16 740 164 1011 432 207 205 336 439
396 724 31 145 32 400 1 540 -64 291 -183 510 -391 719 -130 129 -247 213
-405 289 -220 105 -376 141 -636 145 -102 2 -211 0 -243 -5z m393 -54 c240
-33 471 -123 669 -263 155 -110 337 -324 423 -498 101 -204 138 -365 138 -603
0 -146 -7 -207 -41 -337 -123 -473 -531 -862 -1029 -983 -260 -63 -552 -53
-803 29 -323 105 -601 322 -774 604 -107 174 -164 339 -190 550 -14 111 -15
148 -4 252 26 262 108 478 263 692 60 82 232 248 321 309 298 205 672 295
1027 248z"/>
<path d="M1730 3414 c-233 -30 -448 -103 -612 -210 -112 -72 -151 -105 -139
-117 18 -18 12 -58 -11 -78 -26 -23 -51 -24 -72 -4 -13 14 -16 13 -30 -7 -11
-15 -12 -24 -5 -29 7 -4 8 -12 5 -18 -4 -6 -3 -11 1 -11 10 0 10 -66 1 -76 -4
-3 -4 -12 -1 -20 3 -8 0 -14 -6 -14 -6 0 -11 -7 -11 -15 0 -8 -5 -15 -11 -15
-5 0 -7 -5 -4 -10 3 -6 -1 -13 -9 -16 -9 -3 -13 -10 -10 -15 3 -5 -2 -9 -10
-9 -9 0 -16 -4 -16 -10 0 -5 -7 -10 -15 -10 -8 0 -15 -5 -15 -11 0 -5 -4 -7
-10 -4 -5 3 -10 1 -10 -5 0 -7 -7 -10 -15 -6 -8 3 -15 0 -15 -6 0 -7 -5 -6
-15 2 -9 7 -15 8 -15 2 0 -5 -8 -9 -17 -8 -18 1 -66 -72 -57 -86 9 -14 24 2
24 25 1 21 1 22 15 3 16 -21 17 -21 33 9 11 19 11 19 12 -2 0 -27 7 -29 32 -6
17 15 18 15 18 -10 0 -30 9 -34 29 -14 11 10 12 7 7 -15 -5 -24 -3 -28 14 -28
23 0 26 -10 8 -28 -9 -9 -8 -15 8 -26 19 -15 19 -15 -1 -30 l-20 -15 20 -15
c20 -16 20 -16 -3 -22 -19 -5 -22 -12 -18 -30 5 -19 2 -24 -14 -24 -15 0 -20
-7 -20 -27 0 -21 -3 -24 -12 -15 -18 18 -28 15 -28 -8 0 -25 -9 -25 -26 -2
-12 16 -13 15 -23 -8 l-10 -25 -7 23 c-8 27 -13 27 -30 5 -12 -16 -13 -15 -14
10 0 24 -3 27 -21 22 -18 -6 -19 -4 -10 13 12 22 5 33 -15 25 -17 -6 -18 9 -2
25 6 6 8 15 4 19 -33 33 -69 -248 -55 -433 12 -165 53 -312 130 -466 20 -39
36 -59 52 -63 24 -5 432 -43 512 -47 l50 -2 0 59 0 59 -84 52 c-46 29 -87 58
-91 65 -7 13 -21 274 -19 349 1 19 2 53 3 74 0 23 -4 41 -11 43 -8 3 -13 -5
-13 -21 0 -16 -6 -26 -15 -26 -8 0 -15 6 -15 14 0 27 -20 27 -30 1 -11 -29
-30 -25 -30 6 0 22 -25 26 -34 4 -9 -26 -29 -17 -22 9 7 29 -9 43 -30 25 -20
-16 -28 -5 -15 19 15 29 14 32 -14 32 -29 0 -31 7 -9 31 16 17 15 19 -12 29
l-29 11 25 20 c23 18 24 20 8 33 -24 18 -23 24 5 28 21 3 22 7 10 49 -4 13 1
15 23 11 25 -4 26 -3 20 21 -7 30 6 43 24 22 16 -19 30 -10 30 21 0 29 16 32
25 4 9 -28 23 -25 37 8 l11 27 6 -24 c8 -30 24 -37 41 -16 20 24 30 17 23 -17
-5 -25 -3 -30 8 -26 8 4 22 9 32 13 12 5 17 2 17 -8 0 -9 -5 -19 -10 -22 -20
-12 -9 -25 20 -25 31 0 41 -16 15 -26 -22 -9 -18 -34 4 -34 31 0 35 -19 7 -30
-31 -11 -33 -25 -6 -40 28 -15 25 -30 -5 -30 -25 0 -35 -23 -15 -35 22 -14 9
-27 -20 -21 -23 4 -30 2 -30 -10 0 -12 8 -14 38 -8 36 6 42 10 71 53 8 11 18
18 23 15 4 -3 8 -1 8 5 0 7 8 7 25 1 14 -5 25 -7 25 -4 0 2 11 -6 24 -18 12
-13 21 -29 18 -35 -3 -10 28 -13 137 -13 l141 0 0 24 c0 23 -2 23 -70 18 -61
-4 -76 -1 -124 22 -109 53 -163 181 -121 283 25 59 62 101 118 133 70 40 159
42 234 4 74 -36 125 -115 127 -193 0 -31 -2 -68 -6 -82 l-8 -26 368 -7 c202
-4 386 -4 410 0 43 7 53 22 27 44 -24 20 -17 32 15 25 33 -7 38 3 18 35 -14
22 -3 39 14 22 22 -22 38 -13 38 20 l0 31 23 -21 c25 -24 37 -20 37 10 0 24
21 23 27 -2 6 -23 28 -27 37 -5 9 24 26 17 26 -10 0 -25 23 -35 35 -15 14 22
26 9 20 -21 -7 -30 -6 -31 19 -25 28 7 36 -10 14 -32 -9 -9 -7 -13 5 -17 55
-17 54 -15 28 -34 -24 -19 -22 -41 5 -41 21 0 17 -21 -6 -27 -23 -6 -27 -31
-5 -39 25 -10 17 -27 -10 -22 -31 6 -40 -5 -23 -31 15 -24 4 -39 -16 -22 -21
18 -37 4 -30 -25 7 -27 -7 -32 -26 -9 -19 22 -30 18 -30 -11 0 -19 -4 -25 -15
-20 -21 8 -19 -23 2 -46 16 -18 16 -21 1 -51 -11 -22 -19 -73 -23 -162 -8
-167 -13 -176 -130 -237 -50 -26 -94 -49 -99 -51 -5 -1 -11 -28 -14 -58 l-4
-54 53 3 c84 4 492 42 515 47 15 3 33 29 59 82 131 269 165 554 99 840 -15 67
-18 72 -36 62 -19 -10 -19 -11 -2 -30 16 -18 16 -19 -6 -19 -19 0 -21 -4 -16
-25 7 -27 -3 -32 -22 -13 -9 9 -12 6 -12 -15 0 -15 -4 -27 -10 -27 -5 0 -10 5
-10 10 0 19 -19 10 -26 -12 -6 -20 -7 -21 -17 -2 -15 29 -16 29 -32 8 -14 -19
-14 -18 -15 3 0 25 -15 39 -25 23 -13 -21 -27 -10 -21 16 6 24 5 26 -19 20
-26 -7 -33 2 -14 21 13 13 4 33 -17 33 -17 0 -18 12 -1 29 10 10 9 15 -5 25
-22 16 -23 26 -4 26 23 0 31 22 12 32 -23 13 -20 30 7 26 22 -3 24 2 11 36 -6
16 -4 17 14 7 31 -16 35 -14 27 16 -6 26 -6 27 13 10 24 -22 32 -22 32 3 0 11
4 20 9 20 5 0 11 -9 14 -20 6 -23 27 -27 27 -5 0 8 5 15 10 15 6 0 10 -11 10
-25 0 -27 9 -32 27 -14 9 9 7 22 -8 51 -19 37 -22 39 -59 35 -22 -2 -40 0 -40
6 0 5 -7 7 -15 3 -8 -3 -15 -1 -15 5 0 6 -7 9 -15 5 -8 -3 -15 -1 -15 4 0 6
-5 10 -11 10 -14 0 -39 25 -39 39 0 6 -7 11 -16 11 -8 0 -12 5 -9 10 3 6 0 13
-9 16 -8 3 -12 12 -9 20 3 8 0 14 -6 14 -6 0 -8 7 -5 15 4 8 2 15 -2 15 -5 0
-10 18 -10 40 -1 24 3 40 10 40 6 0 4 5 -4 10 -13 8 -12 10 2 10 20 0 20 32 0
52 -9 9 -15 8 -25 -6 -19 -25 -65 -17 -90 16 -19 25 -19 28 -4 51 16 25 16 25
-56 75 -146 100 -326 175 -516 213 -93 19 -337 32 -411 23z m940 -405 c0 -8 5
-8 15 1 10 9 15 9 15 1 0 -6 7 -11 15 -11 8 0 15 -4 15 -10 0 -5 7 -10 15 -10
8 0 15 -7 15 -15 0 -8 4 -15 10 -15 5 0 7 -7 4 -15 -4 -8 -1 -15 6 -15 10 0
10 -3 0 -15 -7 -8 -9 -15 -5 -15 4 0 2 -7 -5 -15 -7 -8 -9 -15 -6 -15 4 0 0
-7 -8 -16 -9 -8 -20 -12 -26 -9 -5 3 -10 2 -10 -3 0 -6 -11 -9 -25 -8 -14 0
-25 4 -25 9 0 4 -7 7 -15 7 -8 0 -15 5 -15 10 0 6 -7 10 -15 10 -8 0 -15 7
-15 15 0 8 -4 15 -10 15 -5 0 -7 7 -4 15 4 8 1 15 -6 15 -6 0 -8 5 -3 13 4 6
8 17 9 22 0 6 2 16 2 23 1 6 9 12 17 12 8 0 15 5 15 11 0 5 5 7 10 4 6 -3 10
-1 10 4 0 6 5 11 10 11 6 0 10 -5 10 -11z m-348 -41 c31 -15 77 -47 102 -71
65 -66 88 -117 94 -209 4 -69 2 -84 -22 -132 -30 -60 -92 -123 -158 -158 -36
-19 -58 -23 -143 -23 -92 0 -105 3 -159 30 -69 35 -150 120 -178 185 -27 63
-27 164 1 218 25 49 72 104 112 133 92 65 242 76 351 27z m-1254 2 c2 -6 8 -8
13 -4 5 3 9 -2 9 -10 0 -9 4 -16 8 -16 7 0 8 -39 2 -47 -2 -2 -3 -7 -4 -13 0
-5 -9 -19 -18 -30 -10 -11 -18 -25 -18 -31 0 -6 -6 -9 -14 -6 -8 3 -17 3 -20
-1 -10 -9 -46 -10 -46 0 0 5 -5 6 -10 3 -13 -8 -43 22 -45 44 0 9 -4 22 -9 29
-4 6 -3 12 3 12 6 0 8 7 5 15 -4 8 -1 15 5 15 6 0 11 7 11 16 0 8 4 13 9 10 5
-3 12 1 15 10 3 8 10 12 16 9 5 -3 10 -1 10 4 0 14 74 5 78 -9z m1685 -178 c5
11 7 11 15 0 5 -7 16 -10 25 -6 10 4 17 1 17 -6 0 -7 7 -10 15 -6 10 4 15 -1
15 -14 0 -12 7 -20 16 -20 10 0 14 -6 10 -15 -3 -9 0 -15 8 -15 7 0 13 -12 13
-30 0 -16 -5 -30 -10 -30 -5 0 -4 -7 3 -15 10 -12 9 -15 -4 -15 -13 0 -16 -5
-11 -20 5 -15 3 -18 -9 -14 -11 4 -16 0 -16 -12 0 -14 -3 -15 -12 -6 -9 9 -15
9 -26 -1 -12 -9 -16 -9 -20 1 -3 10 -7 10 -18 1 -11 -9 -14 -8 -14 5 0 13 -5
16 -21 11 -16 -5 -20 -3 -17 12 2 13 -2 17 -15 15 -15 -3 -17 1 -12 17 5 16 2
21 -11 21 -12 0 -14 3 -5 13 8 10 7 17 -2 26 -9 9 -9 14 2 20 9 6 10 11 2 15
-6 4 -9 12 -5 17 3 5 10 6 16 3 6 -4 8 1 4 14 -6 17 -3 19 14 15 14 -4 20 -1
20 12 0 14 3 15 14 6 11 -9 15 -9 19 1z m-1790 -26 c12 4 17 1 17 -10 0 -10 6
-13 15 -10 11 5 13 2 9 -10 -4 -11 -1 -16 11 -16 9 0 13 -5 10 -10 -4 -6 -1
-17 5 -25 10 -12 10 -15 0 -15 -7 0 -10 -8 -7 -19 3 -11 -1 -22 -9 -25 -7 -3
-11 -12 -8 -21 4 -10 0 -15 -11 -15 -11 0 -15 -5 -11 -16 4 -12 1 -14 -14 -9
-14 5 -20 2 -20 -9 0 -9 -4 -16 -10 -16 -5 0 -10 5 -10 11 0 8 -4 8 -14 0 -9
-8 -16 -8 -20 -2 -4 6 -13 8 -21 4 -8 -3 -15 0 -15 7 0 7 -7 10 -16 6 -12 -4
-14 -1 -9 14 5 15 2 20 -11 20 -13 0 -14 3 -4 15 10 12 9 15 -5 15 -14 0 -15
3 -6 14 6 7 9 21 5 30 -3 9 -1 16 5 16 6 0 11 7 11 15 0 8 7 15 15 15 8 0 15
7 15 15 0 9 6 12 15 9 9 -4 15 0 15 9 0 10 7 13 20 10 13 -3 20 0 20 8 0 11 2
11 8 1 5 -7 16 -10 25 -6z m1690 -168 c17 -23 19 -32 9 -52 -24 -53 -107 -37
-114 21 -7 63 65 84 105 31z m-1532 2 c23 -13 26 -71 5 -89 -23 -19 -69 -20
-83 -2 -42 55 17 123 78 91z m1942 -325 c13 17 14 17 20 -6 5 -19 9 -21 19
-11 20 20 29 14 22 -14 -6 -23 -4 -25 15 -19 19 6 21 4 15 -19 -5 -20 -2 -26
10 -26 19 0 21 -11 4 -29 -11 -10 -9 -14 5 -23 18 -9 18 -10 0 -23 -14 -11
-16 -16 -5 -26 16 -18 15 -29 -4 -29 -10 0 -14 -7 -12 -22 2 -18 -1 -22 -16
-20 -15 3 -18 -1 -13 -18 4 -17 2 -20 -14 -15 -14 5 -22 0 -29 -17 l-9 -23 -7
24 -7 24 -18 -24 -19 -24 0 23 c0 23 -14 30 -25 12 -12 -20 -25 -9 -19 15 6
24 4 26 -21 19 -25 -6 -26 -5 -16 14 15 28 14 32 -9 32 -23 0 -26 10 -7 29 10
10 9 14 -5 22 -22 12 -23 29 -3 29 8 0 15 7 15 15 0 8 -4 15 -10 15 -18 0 -10
18 11 23 17 5 19 9 10 25 -12 23 -3 36 15 21 15 -12 29 5 20 26 -6 17 9 21 19
5 11 -18 25 -11 25 13 1 21 1 22 15 3 15 -19 15 -19 28 -1z m-2399 -25 c3 0 6
7 6 15 0 8 5 15 10 15 6 0 10 -9 10 -20 0 -11 5 -20 10 -20 6 0 10 5 10 10 0
6 5 10 10 10 6 0 10 -11 10 -25 0 -23 2 -25 21 -14 20 10 21 9 16 -12 -4 -15
0 -27 11 -35 13 -10 14 -15 4 -27 -11 -13 -10 -17 5 -26 17 -11 17 -12 -1 -26
-16 -12 -17 -18 -8 -27 17 -17 15 -28 -4 -28 -12 0 -15 -6 -10 -26 6 -22 4
-25 -14 -19 -17 5 -20 2 -20 -21 0 -26 0 -27 -20 -9 -19 18 -20 17 -20 -3 0
-26 -15 -29 -24 -5 -6 14 -8 14 -21 -3 -14 -18 -15 -18 -21 4 -5 18 -9 20 -20
11 -11 -9 -14 -6 -14 15 0 23 -3 26 -20 21 -18 -6 -20 -3 -14 19 5 20 2 26
-10 26 -14 0 -14 3 -4 20 11 17 10 22 -2 30 -13 9 -13 11 0 20 12 8 13 13 2
30 -10 17 -10 20 4 20 12 0 15 6 10 26 -6 22 -4 25 14 19 17 -5 20 -2 21 22 0
15 3 22 6 16 7 -20 21 -15 29 9 6 20 8 20 19 5 7 -9 15 -17 19 -17z m2232
-214 c8 -35 -3 -61 -32 -74 -34 -16 -40 -15 -64 10 -27 29 -25 64 5 94 24 24
26 24 55 9 16 -8 32 -26 36 -39z m-2003 22 c9 -7 18 -25 21 -39 11 -64 -69
-97 -97 -41 -33 63 22 120 76 80z m121 -24 c22 -22 20 -50 -6 -68 -39 -28 -81
13 -60 60 13 28 43 31 66 8z"/>
<path d="M2642 2968 c-10 -13 -15 -34 -13 -55 4 -42 91 -60 111 -24 15 29 13
39 -15 66 -26 27 -66 33 -83 13z m68 -33 c10 -12 10 -18 0 -30 -7 -8 -16 -15
-21 -15 -16 0 -38 31 -33 45 8 19 38 19 54 0z"/>
<path d="M2109 2975 c-104 -21 -184 -79 -225 -163 -29 -56 -26 -173 4 -232 35
-66 97 -125 166 -156 52 -24 74 -28 146 -28 68 0 94 5 128 23 110 57 172 151
172 260 0 79 -20 127 -80 194 -76 86 -196 126 -311 102z"/>
<path d="M993 2949 c-50 -18 -55 -93 -7 -105 50 -13 104 54 74 90 -15 19 -42
25 -67 15z m37 -29 c18 -11 3 -43 -24 -48 -21 -4 -32 24 -16 43 14 17 20 18
40 5z"/>
<path d="M2727 2732 c-39 -43 -2 -122 57 -122 67 0 89 69 35 114 -36 31 -69
33 -92 8z"/>
<path d="M895 2718 c-47 -27 -60 -82 -27 -111 44 -40 116 -4 116 57 0 20 -4
40 -9 45 -17 17 -59 21 -80 9z"/>
<path d="M2582 2598 c-18 -18 -14 -46 7 -58 40 -21 74 19 45 51 -20 22 -35 24
-52 7z m48 -28 c0 -21 -33 -29 -45 -10 -9 15 4 30 26 30 12 0 19 -7 19 -20z"/>
<path d="M1061 2576 c-21 -26 -9 -51 24 -51 27 0 30 3 30 30 0 23 -5 31 -21
33 -11 2 -26 -4 -33 -12z m49 -22 c0 -20 -30 -30 -40 -13 -11 17 7 40 26 32 8
-3 14 -12 14 -19z"/>
<path d="M2999 2192 c-26 -24 -31 -35 -31 -72 1 -61 28 -94 79 -98 34 -3 44 1
62 24 38 48 23 141 -26 163 -36 16 -50 14 -84 -17z m80 -36 c7 -8 11 -30 9
-48 -2 -26 -8 -34 -26 -36 -44 -7 -66 34 -42 79 13 22 43 25 59 5z"/>
<path d="M610 2182 c-40 -40 -43 -106 -5 -146 30 -33 65 -33 102 -2 24 21 28
32 28 75 0 56 -20 85 -67 96 -22 6 -33 1 -58 -23z m74 -38 c34 -34 7 -92 -37
-80 -22 5 -27 12 -27 39 0 52 32 73 64 41z"/>
<path d="M2822 2048 c-7 -7 -8 -17 -1 -30 13 -23 42 -24 37 0 -2 10 -12 16
-23 15 -20 -2 -20 -1 -1 13 11 8 15 14 10 14 -6 0 -15 -5 -22 -12z"/>
<path d="M2865 2022 c0 -23 -4 -27 -27 -27 -14 1 -24 -3 -22 -7 8 -12 38 -10
52 4 14 14 16 44 4 52 -4 2 -8 -8 -7 -22z"/>
<path d="M831 2036 c-8 -9 -8 -21 -2 -37 5 -13 10 -19 10 -13 1 14 33 13 43
-1 4 -5 8 6 8 25 0 19 -4 31 -8 25 -9 -12 -42 -16 -42 -5 0 5 8 11 18 13 14 4
14 5 1 6 -9 0 -22 -5 -28 -13z"/>
<path d="M971 2016 c-14 -17 -7 -36 14 -36 22 0 29 20 13 36 -13 13 -16 13
-27 0z"/>
<path d="M2740 3071 c0 -5 7 -11 15 -15 9 -3 15 0 15 9 0 8 -7 15 -15 15 -8 0
-15 -4 -15 -9z"/>
<path d="M927 3053 c-12 -11 -8 -23 8 -23 8 0 15 7 15 15 0 16 -12 20 -23 8z"/>
<path d="M2874 2966 c-4 -9 -4 -37 -1 -61 8 -78 79 -145 152 -145 23 0 25 2
14 23 -6 12 -31 40 -55 63 -24 22 -44 50 -44 61 0 10 -13 32 -30 48 -26 25
-30 26 -36 11z"/>
<path d="M794 2922 c-12 -15 -27 -38 -34 -52 -7 -14 -23 -36 -35 -50 -12 -14
-31 -38 -41 -54 l-18 -29 38 6 c70 11 126 83 126 162 0 52 -7 55 -36 17z"/>
<path d="M1411 2614 c-86 -43 -141 -141 -126 -223 18 -99 96 -169 196 -178
217 -20 335 234 175 375 -66 58 -161 68 -245 26z"/>
<path d="M3120 2603 c0 -13 5 -23 10 -23 13 0 13 11 0 30 -8 12 -10 11 -10 -7z"/>
<path d="M3145 2550 c3 -5 8 -10 11 -10 2 0 4 5 4 10 0 6 -5 10 -11 10 -5 0
-7 -4 -4 -10z"/>
<path d="M3010 2526 c-28 -35 11 -93 48 -70 35 22 22 84 -18 84 -10 0 -23 -7
-30 -14z"/>
<path d="M642 2508 c-16 -16 -15 -53 2 -67 17 -15 50 -1 60 24 14 39 -33 72
-62 43z"/>
<path d="M3160 2508 c0 -9 5 -20 10 -23 13 -8 13 5 0 25 -8 13 -10 13 -10 -2z"/>
<path d="M2663 2400 c-41 -25 -53 -48 -53 -104 0 -39 6 -52 34 -84 30 -32 40
-37 80 -37 120 0 158 162 53 225 -40 25 -73 25 -114 0z m90 -21 c63 -32 75
-102 28 -150 -33 -33 -65 -37 -100 -13 -57 40 -58 129 -2 159 32 17 46 18 74
4z"/>
<path d="M901 2370 c-56 -57 -50 -150 13 -190 42 -25 72 -25 114 0 67 41 78
135 22 192 -23 22 -37 28 -73 28 -37 0 -51 -6 -76 -30z m129 -20 c62 -62 4
-176 -78 -155 -71 18 -82 123 -18 167 21 15 76 8 96 -12z"/>
<path d="M1679 2262 c-20 -20 -43 -43 -52 -50 -10 -7 -17 -23 -17 -37 l0 -23
158 -4 c116 -2 163 -7 175 -17 15 -12 17 -43 17 -253 l0 -240 33 6 c17 4 42 7
55 8 15 0 22 6 22 19 0 26 34 43 61 28 15 -8 20 -18 16 -35 -4 -22 -1 -24 39
-24 32 0 75 15 164 57 l121 57 -2 95 c-1 58 -6 99 -13 104 -8 6 -7 10 2 14 10
4 10 8 1 19 -8 10 -8 14 0 14 6 0 11 7 11 15 0 8 5 15 10 15 6 0 10 7 10 15 0
9 6 12 15 9 8 -4 15 -2 15 3 0 14 69 11 75 -4 2 -8 9 -11 15 -8 5 3 10 -1 10
-9 0 -9 4 -16 10 -16 5 0 9 -3 9 -7 -1 -5 0 -10 1 -13 7 -17 5 -50 -3 -50 -5
0 -7 -7 -3 -15 3 -9 0 -15 -9 -15 -8 0 -15 -7 -15 -16 0 -8 -4 -13 -9 -9 -6 3
-14 -3 -20 -12 -7 -12 -10 -13 -11 -4 0 11 -3 11 -15 1 -12 -10 -15 -10 -15 0
0 8 -3 10 -7 7 -3 -4 -9 -35 -12 -69 l-6 -63 -137 -70 c-75 -38 -146 -79 -157
-89 -40 -37 -18 -100 41 -118 37 -11 43 -9 219 78 99 49 188 97 197 107 12 14
19 51 26 153 9 132 9 135 -12 150 -27 19 -28 55 -2 79 12 11 20 30 19 49 0 30
-1 30 -11 8 -14 -27 -34 -23 -30 6 4 28 -15 37 -37 18 -22 -20 -32 -11 -21 20
11 29 -2 39 -31 23 -19 -10 -21 -9 -17 7 13 47 13 49 -14 52 -34 4 -35 15 -5
35 12 8 18 19 14 23 -5 5 -196 10 -425 11 l-417 2 -36 -37z m801 -36 c0 3 7
-1 15 -10 23 -23 33 -59 24 -84 -21 -55 -69 -72 -116 -41 -15 11 -23 19 -18
19 6 0 4 4 -4 9 -7 5 -13 21 -13 36 0 15 6 31 13 36 8 5 10 9 4 9 -5 0 3 9 19
19 22 14 35 17 52 10 13 -4 24 -6 24 -3z m-177 -138 c3 -10 7 -10 19 0 13 10
16 9 21 -10 5 -18 9 -20 19 -10 18 18 30 14 23 -8 -5 -16 -2 -20 15 -20 17 0
20 -4 15 -20 -5 -14 -2 -20 9 -20 19 0 21 -16 4 -23 -9 -3 -7 -9 7 -20 20 -15
20 -16 -4 -25 -16 -6 -20 -11 -13 -16 18 -11 14 -26 -7 -26 -15 0 -18 -5 -14
-21 5 -18 3 -20 -16 -14 -17 5 -21 2 -21 -15 0 -17 -3 -19 -17 -11 -12 7 -21
5 -30 -7 -11 -15 -14 -15 -22 -3 -8 12 -13 12 -24 3 -12 -10 -16 -8 -20 10 -5
18 -9 20 -19 10 -18 -18 -30 -14 -23 8 5 16 2 20 -15 20 -17 0 -20 4 -15 20 5
16 2 20 -16 20 -21 0 -21 1 -5 19 17 18 17 20 -1 29 -17 10 -17 11 -1 17 13 5
16 14 12 30 -5 20 -3 23 16 18 19 -5 21 -3 15 17 -6 19 -4 21 14 15 17 -5 21
-2 21 14 0 23 15 28 24 9 3 -9 8 -8 16 5 13 20 27 22 33 5z m-162 -219 c11
-11 18 -27 15 -36 -3 -8 -6 -18 -6 -23 0 -5 -9 -12 -21 -15 -19 -6 -20 -8 -4
-26 21 -22 13 -49 -15 -49 -24 0 -38 26 -21 43 17 17 14 24 -14 31 -33 8 -35
58 -3 80 30 21 44 20 69 -5z m85 -57 c23 -15 33 -47 22 -67 -21 -38 -55 -46
-82 -19 -40 40 13 117 60 86z"/>
<path d="M2408 2174 c-22 -49 32 -85 73 -48 23 21 24 37 3 58 -25 25 -63 20
-76 -10z m73 0 c17 -21 0 -49 -31 -49 -31 0 -48 28 -31 49 8 9 21 16 31 16 10
0 23 -7 31 -16z"/>
<path d="M2440 2160 c0 -5 5 -10 11 -10 5 0 7 5 4 10 -3 6 -8 10 -11 10 -2 0
-4 -4 -4 -10z"/>
<path d="M2239 2011 c-55 -56 -22 -135 58 -135 62 0 106 78 70 125 -35 46 -88
50 -128 10z m89 -23 c7 -7 12 -21 12 -33 0 -12 -5 -26 -12 -33 -7 -7 -21 -12
-33 -12 -12 0 -26 5 -33 12 -7 7 -12 21 -12 33 0 12 5 26 12 33 7 7 21 12 33
12 12 0 26 -5 33 -12z"/>
<path d="M2287 1963 c-12 -11 -8 -23 8 -23 8 0 15 7 15 15 0 16 -12 20 -23 8z"/>
<path d="M2084 1845 c-8 -19 12 -36 33 -28 19 7 12 37 -10 41 -9 2 -20 -4 -23
-13z"/>
<path d="M1200 2171 c-15 -30 -12 -38 6 -13 18 25 46 29 64 7 27 -32 -16 -68
-54 -45 -20 11 -20 11 -4 -5 36 -38 93 8 68 55 -14 27 -65 27 -80 1z"/>
<path d="M1230 2150 c0 -5 5 -10 10 -10 6 0 10 5 10 10 0 6 -4 10 -10 10 -5 0
-10 -4 -10 -10z"/>
<path d="M1110 2121 c-20 -5 -26 -14 -28 -44 -2 -21 1 -37 7 -37 6 0 11 5 11
11 0 5 5 7 11 3 6 -3 15 0 20 7 6 10 9 10 9 2 0 -7 7 -10 15 -7 8 4 15 1 15
-5 0 -6 7 -8 15 -5 9 4 15 0 15 -10 0 -9 5 -16 11 -16 5 0 7 -4 4 -10 -3 -5
-1 -10 5 -10 7 0 9 -8 5 -20 -4 -13 -2 -20 7 -20 10 0 10 -2 -1 -9 -7 -5 -10
-14 -7 -20 4 -6 1 -11 -8 -11 -10 0 -13 -6 -9 -17 5 -12 2 -15 -10 -10 -12 4
-17 1 -17 -10 0 -13 -3 -13 -15 -3 -8 7 -15 8 -15 3 0 -5 -9 -9 -20 -9 -11 0
-20 4 -20 8 0 4 -7 8 -15 8 -12 0 -15 -19 -15 -109 l0 -109 93 -60 c150 -97
188 -110 221 -77 48 48 24 89 -92 158 l-82 48 0 55 c0 47 2 54 20 54 17 0 20
-7 20 -48 0 -56 2 -58 103 -120 56 -34 77 -42 118 -42 44 0 49 2 49 23 0 25
17 47 36 47 19 0 46 -31 40 -46 -4 -11 1 -13 18 -8 13 3 27 1 30 -5 4 -6 23
-11 41 -11 l34 0 3 103 c3 94 4 102 23 102 19 0 20 -8 23 -102 l3 -103 74 0
75 0 0 234 c0 177 -3 237 -12 243 -7 4 -142 9 -301 11 l-287 4 -28 -30 c-37
-39 -95 -39 -124 2 -20 27 -26 29 -68 17z m255 -41 c5 -8 11 -7 21 1 12 10 18
8 29 -7 8 -11 14 -14 15 -6 0 6 7 12 15 12 9 0 12 -6 8 -16 -4 -12 0 -15 18
-12 18 2 23 -1 21 -14 -2 -11 3 -18 14 -18 12 0 15 -6 10 -25 -5 -18 -2 -25 9
-25 8 0 15 -4 15 -10 0 -5 -7 -10 -15 -10 -8 0 -15 -4 -15 -10 0 -5 5 -10 10
-10 6 0 10 -7 10 -15 0 -8 -6 -15 -14 -15 -9 0 -12 -7 -9 -21 5 -18 3 -20 -17
-14 -19 6 -21 4 -15 -15 6 -19 4 -21 -14 -15 -15 5 -21 2 -21 -9 0 -19 -12
-20 -28 -4 -10 10 -15 10 -22 -2 -8 -13 -11 -12 -23 4 -10 13 -16 15 -21 8
-12 -19 -26 -14 -26 9 0 18 -2 19 -15 9 -15 -13 -19 -8 -16 23 1 9 -4 17 -13
17 -19 0 -22 20 -3 20 6 0 3 7 -8 16 -17 13 -18 16 -5 24 12 7 12 12 2 22 -16
16 -15 28 2 28 9 0 12 7 9 21 -5 18 -3 20 15 15 17 -6 19 -3 15 15 -5 18 -3
20 16 14 15 -5 21 -2 21 9 0 18 16 21 25 6z m260 -235 c8 -24 6 -30 -18 -49
-20 -16 -24 -25 -16 -33 7 -7 9 -19 6 -27 -8 -20 -46 -21 -53 -2 -5 12 -9 11
-25 -5 -23 -23 -52 -24 -73 -3 -22 22 -20 60 5 78 32 22 60 8 86 -42 1 -2 10
1 20 7 10 6 12 11 6 11 -20 0 -45 47 -38 70 15 47 83 43 100 -5z"/>
<path d="M1342 2014 c-35 -24 -45 -59 -27 -94 27 -53 83 -65 129 -29 77 60
-22 179 -102 123z m79 -35 c26 -26 21 -49 -13 -68 -24 -14 -28 -14 -47 3 -27
25 -27 51 1 70 29 21 34 20 59 -5z"/>
<path d="M1375 1950 c3 -5 10 -10 16 -10 5 0 9 5 9 10 0 6 -7 10 -16 10 -8 0
-12 -4 -9 -10z"/>
<path d="M1561 1851 c-19 -12 -6 -43 16 -39 10 2 18 12 18 22 0 22 -14 29 -34
17z"/>
<path d="M2520 2020 c-11 -8 -7 -9 15 -4 37 8 45 14 19 14 -10 0 -26 -5 -34
-10z"/>
<path d="M2697 2024 c-16 -16 -6 -35 16 -32 12 2 22 10 22 18 0 16 -26 25 -38
14z"/>
<path d="M1099 2003 c-13 -16 -12 -17 4 -4 9 7 17 15 17 17 0 8 -8 3 -21 -13z"/>
<path d="M1171 2003 c7 -12 15 -20 18 -17 3 2 -3 12 -13 22 -17 16 -18 16 -5
-5z"/>
<path d="M2536 1991 c-4 -5 4 -7 16 -3 18 4 20 2 15 -18 -4 -16 -3 -20 5 -12
6 6 8 18 5 26 -7 17 -32 21 -41 7z"/>
<path d="M2601 1974 c0 -11 3 -14 6 -6 3 7 2 16 -1 19 -3 4 -6 -2 -5 -13z"/>
<path d="M1176 1933 c-6 -14 -5 -15 5 -6 7 7 10 15 7 18 -3 3 -9 -2 -12 -12z"/>
<path d="M2500 1946 c0 -2 8 -10 18 -17 15 -13 16 -12 3 4 -13 16 -21 21 -21
13z"/>
<path d="M2576 1935 c-11 -8 -15 -15 -9 -15 6 0 16 7 23 15 16 19 11 19 -14 0z"/>
<path d="M1118 1918 c6 -6 18 -8 28 -6 14 3 12 5 -9 10 -19 3 -25 2 -19 -4z"/>
<path d="M2493 1825 c0 -27 2 -38 4 -22 2 15 2 37 0 50 -2 12 -4 0 -4 -28z"/>
<path d="M2100 1676 c0 -9 5 -16 10 -16 6 0 10 4 10 9 0 6 -4 13 -10 16 -5 3
-10 -1 -10 -9z"/>
<path d="M1560 1670 c0 -5 5 -10 10 -10 6 0 10 5 10 10 0 6 -4 10 -10 10 -5 0
-10 -4 -10 -10z"/>
<path d="M1280 1470 l0 -50 70 0 c75 0 75 0 64 56 -5 27 -8 29 -49 26 -23 -2
-52 1 -64 7 -20 11 -21 9 -21 -39z"/>
<path d="M2380 1480 c-36 -16 -82 -30 -102 -30 -32 0 -38 -3 -38 -21 0 -21 3
-22 61 -15 34 3 84 6 110 6 l49 0 0 45 c0 25 -3 45 -7 45 -5 0 -37 -14 -73
-30z"/>
<path d="M700 1423 c0 -16 116 -155 187 -225 179 -175 412 -301 666 -359 134
-31 399 -38 539 -14 286 48 528 165 730 354 87 82 206 226 195 237 -3 4 -97
-3 -209 -15 -255 -27 -704 -51 -953 -51 -241 0 -660 23 -925 50 -113 11 -211
22 -217 25 -7 2 -13 1 -13 -2z"/>
<path d="M523 1125 c-25 -18 -29 -52 -13 -119 10 -46 -1 -76 -29 -76 -48 0
-67 76 -29 117 l21 23 -36 0 c-42 0 -57 -19 -57 -75 0 -25 8 -43 25 -61 22
-22 32 -25 82 -22 47 3 59 7 75 29 19 25 19 29 4 79 -15 50 -9 90 13 90 17 0
43 -40 38 -59 -3 -14 1 -21 16 -25 28 -7 37 1 37 33 0 58 -98 102 -147 66z"/>
<path d="M3094 1046 c-35 -15 -44 -32 -44 -82 0 -41 29 -74 65 -74 14 0 44 9
66 21 55 27 93 23 97 -13 2 -18 -4 -31 -20 -42 -25 -18 -74 -21 -83 -6 -11 18
-25 11 -25 -13 0 -47 52 -62 110 -32 51 26 63 74 36 140 -21 49 -54 55 -123
21 -58 -28 -97 -27 -91 2 2 10 18 24 36 32 22 10 31 21 30 34 -4 25 -16 28
-54 12z"/>
<path d="M614 891 c-92 -91 -99 -100 -80 -109 18 -9 31 -1 89 56 68 68 75 67
56 -2 -12 -42 1 -62 31 -50 8 4 36 12 62 19 44 12 47 12 38 -4 -5 -10 -39 -46
-77 -80 -64 -60 -66 -64 -48 -77 18 -13 27 -7 122 88 91 90 101 104 84 112
-12 5 -45 2 -87 -7 -38 -9 -70 -14 -73 -12 -2 3 4 37 14 76 14 59 15 73 3 80
-7 5 -17 9 -23 9 -5 0 -55 -45 -111 -99z"/>
<path d="M2912 874 c-67 -55 -81 -72 -76 -89 10 -31 12 -31 42 -2 16 15 32 27
38 27 5 0 45 -41 88 -90 62 -69 83 -87 93 -78 7 6 13 15 13 21 0 5 -36 49 -80
97 l-80 88 31 23 c25 20 29 28 22 47 -9 23 -11 21 -91 -44z"/>
<path d="M2780 759 c-10 -17 -4 -32 39 -100 28 -44 51 -82 51 -84 0 -2 -51 23
-113 55 -87 46 -116 57 -125 48 -7 -7 -12 -18 -12 -24 0 -14 140 -234 149
-234 4 0 11 8 17 18 9 14 4 30 -33 86 -24 37 -42 70 -39 73 3 3 49 -18 102
-47 l98 -52 17 23 c17 22 16 25 -15 73 -18 28 -52 81 -75 119 -24 37 -44 67
-47 67 -2 0 -8 -9 -14 -21z"/>
<path d="M905 674 c-60 -41 -117 -79 -125 -84 -11 -7 -12 -12 -4 -20 9 -9 22
-5 52 15 l41 27 46 -32 c39 -27 46 -36 41 -56 -3 -13 -9 -36 -12 -50 -6 -23
-4 -25 22 -22 28 3 29 6 51 103 29 132 33 189 13 192 -8 1 -64 -32 -125 -73z
m80 -16 c-4 -18 -11 -37 -15 -41 -9 -10 -50 9 -50 22 0 8 58 50 68 51 2 0 1
-15 -3 -32z"/>
<path d="M1163 642 c-21 -14 -124 -242 -108 -242 7 0 20 -2 27 -5 10 -4 22 11
38 45 22 47 24 49 42 33 10 -9 18 -28 18 -42 0 -27 18 -101 25 -101 19 0 55
22 50 31 -6 9 -34 114 -35 130 0 4 14 9 30 13 35 7 56 42 46 79 -11 45 -96 82
-133 59z m69 -49 c24 -22 23 -49 -4 -67 -25 -18 -68 -21 -68 -6 0 15 39 90 47
90 3 0 15 -7 25 -17z"/>
<path d="M2504 623 c-92 -38 -93 -42 -32 -180 28 -65 53 -120 54 -122 2 -2 37
9 79 24 55 20 75 32 75 46 0 9 3 25 7 35 5 14 -6 11 -49 -14 -48 -28 -88 -40
-88 -28 0 2 -7 20 -15 40 l-15 36 33 14 c19 7 37 23 40 35 6 25 -2 26 -50 6
-20 -8 -37 -14 -38 -13 -8 10 -25 48 -25 57 0 5 20 17 44 26 32 12 45 24 49
41 5 28 8 29 -69 -3z"/>
<path d="M1374 559 c-15 -17 -13 -18 25 -30 26 -8 41 -18 41 -28 0 -9 -14 -61
-30 -116 -16 -55 -30 -104 -30 -108 0 -7 38 -1 47 7 2 1 17 49 34 107 17 57
32 105 34 107 2 2 19 -1 38 -6 30 -8 38 -7 53 9 20 22 27 18 -103 52 -89 23
-94 23 -109 6z"/>
<path d="M2243 543 c-12 -2 -28 -14 -36 -27 -14 -21 -13 -31 8 -107 13 -46 28
-103 35 -127 10 -39 12 -41 33 -31 12 7 23 12 24 13 1 1 -4 25 -11 54 -13 48
-13 52 3 52 10 0 44 -21 76 -46 55 -42 60 -44 72 -28 15 21 17 44 4 44 -5 0
-27 15 -50 34 -22 19 -46 36 -53 39 -10 3 -8 9 5 24 25 29 22 68 -9 92 -25 20
-52 24 -101 14z m65 -49 c27 -19 28 -44 2 -72 -29 -31 -36 -28 -49 25 -10 37
-9 48 1 54 18 12 20 11 46 -7z"/>
<path d="M2028 498 c-18 -15 -92 -264 -84 -285 9 -23 23 -7 35 41 l11 44 57 4
c54 3 58 1 72 -25 30 -55 34 -57 58 -44 23 13 23 13 -48 137 -38 69 -73 128
-78 133 -4 4 -14 1 -23 -5z m42 -135 c0 -8 -13 -13 -30 -13 -33 0 -35 3 -19
49 l12 33 18 -29 c10 -15 19 -34 19 -40z"/>
<path d="M1722 483 c-5 -10 -13 -75 -16 -145 l-8 -128 24 9 c17 6 24 18 28 47
4 29 10 40 25 42 51 7 66 14 90 40 61 65 12 152 -85 152 -37 0 -52 -4 -58 -17z
m115 -44 c7 -6 13 -29 13 -50 0 -47 -25 -59 -70 -32 -32 19 -34 23 -24 73 6
29 9 31 37 26 17 -3 36 -11 44 -17z"/>
</g>
</svg>
